<?xml version="1.0" encoding="UTF-8"?>
<svg xmlns="http://www.w3.org/2000/svg" width="420" height="420" viewBox="0 0 420 420">
<g>
<circle cx="200.00" cy="200.00" r="90.00" fill="white" stroke="black" stroke-width="2.00"/>
<circle cx="200.00" cy="200.00" r="72.00" fill="black" stroke="black" stroke-width="2.00"/>
<circle cx="200.00" cy="200.00" r="54.00" fill="white" stroke="black" stroke-width="2.00"/>
<circle cx="200.00" cy="200.00" r="36.00" fill="black" stroke="black" stroke-width="2.00"/>
<circle cx="200.00" cy="200.00" r="18.00" fill="white" stroke="black" stroke-width="2.00"/>
<circle cx="200.00" cy="200.00" r="0.00" fill="black" stroke="black" stroke-width="2.00"/>
<polygon points="71.26,102.50 60.00,109.00 48.74,102.50 48.74,89.50 60.00,83.00 71.26,89.50 " fill="white" stroke="black"/>
<polygon points="98.39,102.00 88.00,108.00 77.61,102.00 77.61,90.00 88.00,84.00 98.39,90.00 " fill="white" stroke="black"/>
<polygon points="126.39,102.00 116.00,108.00 105.61,102.00 105.61,90.00 116.00,84.00 126.39,90.00 " fill="white" stroke="black"/>
<polygon points="155.26,102.50 144.00,109.00 132.74,102.50 132.74,89.50 144.00,83.00 155.26,89.50 " fill="white" stroke="black"/>
<polygon points="182.39,102.00 172.00,108.00 161.61,102.00 161.61,90.00 172.00,84.00 182.39,90.00 " fill="white" stroke="black"/>
<polygon points="210.39,102.00 200.00,108.00 189.61,102.00 189.61,90.00 200.00,84.00 210.39,90.00 " fill="white" stroke="black"/>
<polygon points="239.26,102.50 228.00,109.00 216.74,102.50 216.74,89.50 228.00,83.00 239.26,89.50 " fill="white" stroke="black"/>
<polygon points="266.39,102.00 256.00,108.00 245.61,102.00 245.61,90.00 256.00,84.00 266.39,90.00 " fill="white" stroke="black"/>
<polygon points="294.39,102.00 284.00,108.00 273.61,102.00 273.61,90.00 284.00,84.00 294.39,90.00 " fill="white" stroke="black"/>
<polygon points="323.26,102.50 312.00,109.00 300.74,102.50 300.74,89.50 312.00,83.00 323.26,89.50 " fill="white" stroke="black"/>
<polygon points="350.39,102.00 340.00,108.00 329.61,102.00 329.61,90.00 340.00,84.00 350.39,90.00 " fill="white" stroke="black"/>
<polygon points="56.39,128.00 46.00,134.00 35.61,128.00 35.61,116.00 46.00,110.00 56.39,116.00 " fill="white" stroke="black"/>
<polygon points="85.26,128.50 74.00,135.00 62.74,128.50 62.74,115.50 74.00,109.00 85.26,115.50 " fill="white" stroke="black"/>
<polygon points="112.39,128.00 102.00,134.00 91.61,128.00 91.61,116.00 102.00,110.00 112.39,116.00 " fill="white" stroke="black"/>
<polygon points="140.39,128.00 130.00,134.00 119.61,128.00 119.61,116.00 130.00,110.00 140.39,116.00 " fill="white" stroke="black"/>
<polygon points="169.26,128.50 158.00,135.00 146.74,128.50 146.74,115.50 158.00,109.00 169.26,115.50 " fill="white" stroke="black"/>
<polygon points="196.39,128.00 186.00,134.00 175.61,128.00 175.61,116.00 186.00,110.00 196.39,116.00 " fill="white" stroke="black"/>
<polygon points="224.39,128.00 214.00,134.00 203.61,128.00 203.61,116.00 214.00,110.00 224.39,116.00 " fill="white" stroke="black"/>
<polygon points="253.26,128.50 242.00,135.00 230.74,128.50 230.74,115.50 242.00,109.00 253.26,115.50 " fill="white" stroke="black"/>
<polygon points="280.39,128.00 270.00,134.00 259.61,128.00 259.61,116.00 270.00,110.00 280.39,116.00 " fill="white" stroke="black"/>
<polygon points="308.39,128.00 298.00,134.00 287.61,128.00 287.61,116.00 298.00,110.00 308.39,116.00 " fill="white" stroke="black"/>
<polygon points="337.26,128.50 326.00,135.00 314.74,128.50 314.74,115.50 326.00,109.00 337.26,115.50 " fill="white" stroke="black"/>
<polygon points="364.39,128.00 354.00,134.00 343.61,128.00 343.61,116.00 354.00,110.00 364.39,116.00 " fill="white" stroke="black"/>
<polygon points="392.39,128.00 382.00,134.00 371.61,128.00 371.61,116.00 382.00,110.00 392.39,116.00 " fill="white" stroke="black"/>
<polygon points="43.26,154.50 32.00,161.00 20.74,154.50 20.74,141.50 32.00,135.00 43.26,141.50 " fill="white" stroke="black"/>
<polygon points="70.39,154.00 60.00,160.00 49.61,154.00 49.61,142.00 60.00,136.00 70.39,142.00 " fill="white" stroke="black"/>
<polygon points="98.39,154.00 88.00,160.00 77.61,154.00 77.61,142.00 88.00,136.00 98.39,142.00 " fill="white" stroke="black"/>
<polygon points="127.26,154.50 116.00,161.00 104.74,154.50 104.74,141.50 116.00,135.00 127.26,141.50 " fill="white" stroke="black"/>
<polygon points="154.39,154.00 144.00,160.00 133.61,154.00 133.61,142.00 144.00,136.00 154.39,142.00 " fill="white" stroke="black"/>
<polygon points="182.39,154.00 172.00,160.00 161.61,154.00 161.61,142.00 172.00,136.00 182.39,142.00 " fill="white" stroke="black"/>
<polygon points="211.26,154.50 200.00,161.00 188.74,154.50 188.74,141.50 200.00,135.00 211.26,141.50 " fill="white" stroke="black"/>
<polygon points="238.39,154.00 228.00,160.00 217.61,154.00 217.61,142.00 228.00,136.00 238.39,142.00 " fill="white" stroke="black"/>
<polygon points="266.39,154.00 256.00,160.00 245.61,154.00 245.61,142.00 256.00,136.00 266.39,142.00 " fill="white" stroke="black"/>
<polygon points="295.26,154.50 284.00,161.00 272.74,154.50 272.74,141.50 284.00,135.00 295.26,141.50 " fill="white" stroke="black"/>
<polygon points="322.39,154.00 312.00,160.00 301.61,154.00 301.61,142.00 312.00,136.00 322.39,142.00 " fill="white" stroke="black"/>
<polygon points="350.39,154.00 340.00,160.00 329.61,154.00 329.61,142.00 340.00,136.00 350.39,142.00 " fill="white" stroke="black"/>
<polygon points="379.26,154.50 368.00,161.00 356.74,154.50 356.74,141.50 368.00,135.00 379.26,141.50 " fill="white" stroke="black"/>
<polygon points="28.39,180.00 18.00,186.00 7.61,180.00 7.61,168.00 18.00,162.00 28.39,168.00 " fill="white" stroke="black"/>
<polygon points="56.39,180.00 46.00,186.00 35.61,180.00 35.61,168.00 46.00,162.00 56.39,168.00 " fill="white" stroke="black"/>
<polygon points="85.26,180.50 74.00,187.00 62.74,180.50 62.74,167.50 74.00,161.00 85.26,167.50 " fill="white" stroke="black"/>
<polygon points="112.39,180.00 102.00,186.00 91.61,180.00 91.61,168.00 102.00,162.00 112.39,168.00 " fill="white" stroke="black"/>
<polygon points="140.39,180.00 130.00,186.00 119.61,180.00 119.61,168.00 130.00,162.00 140.39,168.00 " fill="white" stroke="black"/>
<polygon points="169.26,180.50 158.00,187.00 146.74,180.50 146.74,167.50 158.00,161.00 169.26,167.50 " fill="white" stroke="black"/>
<polygon points="252.39,180.00 242.00,186.00 231.61,180.00 231.61,168.00 242.00,162.00 252.39,168.00 " fill="white" stroke="black"/>
<polygon points="280.39,180.00 270.00,186.00 259.61,180.00 259.61,168.00 270.00,162.00 280.39,168.00 " fill="white" stroke="black"/>
<polygon points="309.26,180.50 298.00,187.00 286.74,180.50 286.74,167.50 298.00,161.00 309.26,167.50 " fill="white" stroke="black"/>
<polygon points="336.39,180.00 326.00,186.00 315.61,180.00 315.61,168.00 326.00,162.00 336.39,168.00 " fill="white" stroke="black"/>
<polygon points="364.39,180.00 354.00,186.00 343.61,180.00 343.61,168.00 354.00,162.00 364.39,168.00 " fill="white" stroke="black"/>
<polygon points="393.26,180.50 382.00,187.00 370.74,180.50 370.74,167.50 382.00,161.00 393.26,167.50 " fill="white" stroke="black"/>
<polygon points="420.39,180.00 410.00,186.00 399.61,180.00 399.61,168.00 410.00,162.00 420.39,168.00 " fill="white" stroke="black"/>
<polygon points="14.39,206.00 4.00,212.00 -6.39,206.00 -6.39,194.00 4.00,188.00 14.39,194.00 " fill="white" stroke="black"/>
<polygon points="43.26,206.50 32.00,213.00 20.74,206.50 20.74,193.50 32.00,187.00 43.26,193.50 " fill="white" stroke="black"/>
<polygon points="70.39,206.00 60.00,212.00 49.61,206.00 49.61,194.00 60.00,188.00 70.39,194.00 " fill="white" stroke="black"/>
<polygon points="98.39,206.00 88.00,212.00 77.61,206.00 77.61,194.00 88.00,188.00 98.39,194.00 " fill="white" stroke="black"/>
<polygon points="127.26,206.50 116.00,213.00 104.74,206.50 104.74,193.50 116.00,187.00 127.26,193.50 " fill="white" stroke="black"/>
<polygon points="154.39,206.00 144.00,212.00 133.61,206.00 133.61,194.00 144.00,188.00 154.39,194.00 " fill="white" stroke="black"/>
<polygon points="266.39,206.00 256.00,212.00 245.61,206.00 245.61,194.00 256.00,188.00 266.39,194.00 " fill="white" stroke="black"/>
<polygon points="295.26,206.50 284.00,213.00 272.74,206.50 272.74,193.50 284.00,187.00 295.26,193.50 " fill="white" stroke="black"/>
<polygon points="322.39,206.00 312.00,212.00 301.61,206.00 301.61,194.00 312.00,188.00 322.39,194.00 " fill="white" stroke="black"/>
<polygon points="350.39,206.00 340.00,212.00 329.61,206.00 329.61,194.00 340.00,188.00 350.39,194.00 " fill="white" stroke="black"/>
<polygon points="379.26,206.50 368.00,213.00 356.74,206.50 356.74,193.50 368.00,187.00 379.26,193.50 " fill="white" stroke="black"/>
<polygon points="406.39,206.00 396.00,212.00 385.61,206.00 385.61,194.00 396.00,188.00 406.39,194.00 " fill="white" stroke="black"/>
<polygon points="28.39,232.00 18.00,238.00 7.61,232.00 7.61,220.00 18.00,214.00 28.39,220.00 " fill="white" stroke="black"/>
<polygon points="57.26,232.50 46.00,239.00 34.74,232.50 34.74,219.50 46.00,213.00 57.26,219.50 " fill="white" stroke="black"/>
<polygon points="84.39,232.00 74.00,238.00 63.61,232.00 63.61,220.00 74.00,214.00 84.39,220.00 " fill="white" stroke="black"/>
<polygon points="112.39,232.00 102.00,238.00 91.61,232.00 91.61,220.00 102.00,214.00 112.39,220.00 " fill="white" stroke="black"/>
<polygon points="141.26,232.50 130.00,239.00 118.74,232.50 118.74,219.50 130.00,213.00 141.26,219.50 " fill="white" stroke="black"/>
<polygon points="168.39,232.00 158.00,238.00 147.61,232.00 147.61,220.00 158.00,214.00 168.39,220.00 " fill="white" stroke="black"/>
<polygon points="252.39,232.00 242.00,238.00 231.61,232.00 231.61,220.00 242.00,214.00 252.39,220.00 " fill="white" stroke="black"/>
<polygon points="281.26,232.50 270.00,239.00 258.74,232.50 258.74,219.50 270.00,213.00 281.26,219.50 " fill="white" stroke="black"/>
<polygon points="308.39,232.00 298.00,238.00 287.61,232.00 287.61,220.00 298.00,214.00 308.39,220.00 " fill="white" stroke="black"/>
<polygon points="336.39,232.00 326.00,238.00 315.61,232.00 315.61,220.00 326.00,214.00 336.39,220.00 " fill="white" stroke="black"/>
<polygon points="365.26,232.50 354.00,239.00 342.74,232.50 342.74,219.50 354.00,213.00 365.26,219.50 " fill="white" stroke="black"/>
<polygon points="392.39,232.00 382.00,238.00 371.61,232.00 371.61,220.00 382.00,214.00 392.39,220.00 " fill="white" stroke="black"/>
<polygon points="420.39,232.00 410.00,238.00 399.61,232.00 399.61,220.00 410.00,214.00 420.39,220.00 " fill="white" stroke="black"/>
<polygon points="43.26,258.50 32.00,265.00 20.74,258.50 20.74,245.50 32.00,239.00 43.26,245.50 " fill="white" stroke="black"/>
<polygon points="70.39,258.00 60.00,264.00 49.61,258.00 49.61,246.00 60.00,240.00 70.39,246.00 " fill="white" stroke="black"/>
<polygon points="98.39,258.00 88.00,264.00 77.61,258.00 77.61,246.00 88.00,240.00 98.39,246.00 " fill="white" stroke="black"/>
<polygon points="127.26,258.50 116.00,265.00 104.74,258.50 104.74,245.50 116.00,239.00 127.26,245.50 " fill="white" stroke="black"/>
<polygon points="154.39,258.00 144.00,264.00 133.61,258.00 133.61,246.00 144.00,240.00 154.39,246.00 " fill="white" stroke="black"/>
<polygon points="182.39,258.00 172.00,264.00 161.61,258.00 161.61,246.00 172.00,240.00 182.39,246.00 " fill="white" stroke="black"/>
<polygon points="211.26,258.50 200.00,265.00 188.74,258.50 188.74,245.50 200.00,239.00 211.26,245.50 " fill="white" stroke="black"/>
<polygon points="238.39,258.00 228.00,264.00 217.61,258.00 217.61,246.00 228.00,240.00 238.39,246.00 " fill="white" stroke="black"/>
<polygon points="266.39,258.00 256.00,264.00 245.61,258.00 245.61,246.00 256.00,240.00 266.39,246.00 " fill="white" stroke="black"/>
<polygon points="295.26,258.50 284.00,265.00 272.74,258.50 272.74,245.50 284.00,239.00 295.26,245.50 " fill="white" stroke="black"/>
<polygon points="322.39,258.00 312.00,264.00 301.61,258.00 301.61,246.00 312.00,240.00 322.39,246.00 " fill="white" stroke="black"/>
<polygon points="350.39,258.00 340.00,264.00 329.61,258.00 329.61,246.00 340.00,240.00 350.39,246.00 " fill="white" stroke="black"/>
<polygon points="379.26,258.50 368.00,265.00 356.74,258.50 356.74,245.50 368.00,239.00 379.26,245.50 " fill="white" stroke="black"/>
<polygon points="56.39,284.00 46.00,290.00 35.61,284.00 35.61,272.00 46.00,266.00 56.39,272.00 " fill="white" stroke="black"/>
<polygon points="84.39,284.00 74.00,290.00 63.61,284.00 63.61,272.00 74.00,266.00 84.39,272.00 " fill="white" stroke="black"/>
<polygon points="113.26,284.50 102.00,291.00 90.74,284.50 90.74,271.50 102.00,265.00 113.26,271.50 " fill="white" stroke="black"/>
<polygon points="140.39,284.00 130.00,290.00 119.61,284.00 119.61,272.00 130.00,266.00 140.39,272.00 " fill="white" stroke="black"/>
<polygon points="168.39,284.00 158.00,290.00 147.61,284.00 147.61,272.00 158.00,266.00 168.39,272.00 " fill="white" stroke="black"/>
<polygon points="197.26,284.50 186.00,291.00 174.74,284.50 174.74,271.50 186.00,265.00 197.26,271.50 " fill="white" stroke="black"/>
<polygon points="224.39,284.00 214.00,290.00 203.61,284.00 203.61,272.00 214.00,266.00 224.39,272.00 " fill="white" stroke="black"/>
<polygon points="252.39,284.00 242.00,290.00 231.61,284.00 231.61,272.00 242.00,266.00 252.39,272.00 " fill="white" stroke="black"/>
<polygon points="281.26,284.50 270.00,291.00 258.74,284.50 258.74,271.50 270.00,265.00 281.26,271.50 " fill="white" stroke="black"/>
<polygon points="308.39,284.00 298.00,290.00 287.61,284.00 287.61,272.00 298.00,266.00 308.39,272.00 " fill="white" stroke="black"/>
<polygon points="336.39,284.00 326.00,290.00 315.61,284.00 315.61,272.00 326.00,266.00 336.39,272.00 " fill="white" stroke="black"/>
<polygon points="365.26,284.50 354.00,291.00 342.74,284.50 342.74,271.50 354.00,265.00 365.26,271.50 " fill="white" stroke="black"/>
<polygon points="392.39,284.00 382.00,290.00 371.61,284.00 371.61,272.00 382.00,266.00 392.39,272.00 " fill="white" stroke="black"/>
<polygon points="70.39,310.00 60.00,316.00 49.61,310.00 49.61,298.00 60.00,292.00 70.39,298.00 " fill="white" stroke="black"/>
<polygon points="99.26,310.50 88.00,317.00 76.74,310.50 76.74,297.50 88.00,291.00 99.26,297.50 " fill="white" stroke="black"/>
<polygon points="126.39,310.00 116.00,316.00 105.61,310.00 105.61,298.00 116.00,292.00 126.39,298.00 " fill="white" stroke="black"/>
<polygon points="154.39,310.00 144.00,316.00 133.61,310.00 133.61,298.00 144.00,292.00 154.39,298.00 " fill="white" stroke="black"/>
<polygon points="183.26,310.50 172.00,317.00 160.74,310.50 160.74,297.50 172.00,291.00 183.26,297.50 " fill="white" stroke="black"/>
<polygon points="210.39,310.00 200.00,316.00 189.61,310.00 189.61,298.00 200.00,292.00 210.39,298.00 " fill="white" stroke="black"/>
<polygon points="238.39,310.00 228.00,316.00 217.61,310.00 217.61,298.00 228.00,292.00 238.39,298.00 " fill="white" stroke="black"/>
<polygon points="267.26,310.50 256.00,317.00 244.74,310.50 244.74,297.50 256.00,291.00 267.26,297.50 " fill="white" stroke="black"/>
<polygon points="294.39,310.00 284.00,316.00 273.61,310.00 273.61,298.00 284.00,292.00 294.39,298.00 " fill="white" stroke="black"/>
<polygon points="322.39,310.00 312.00,316.00 301.61,310.00 301.61,298.00 312.00,292.00 322.39,298.00 " fill="white" stroke="black"/>
<polygon points="351.26,310.50 340.00,317.00 328.74,310.50 328.74,297.50 340.00,291.00 351.26,297.50 " fill="white" stroke="black"/>
</g>
</svg>
