<?xml version="1.0" encoding="UTF-8"?>
<svg xmlns="http://www.w3.org/2000/svg" width="400" height="400" viewBox="0 0 400 400">
<g>
<rect x="0.00" y="0.00" width="310.00" height="310.00" fill="white" stroke="black"/>
<rect x="150.00" y="150.00" width="10.00" height="10.00" fill="black" stroke="black"/>
<rect x="140.00" y="140.00" width="30.00" height="30.00" fill="white" stroke="black"/>
<rect x="130.00" y="130.00" width="50.00" height="50.00" fill="black" stroke="black"/>
<rect x="120.00" y="120.00" width="70.00" height="70.00" fill="white" stroke="black"/>
<rect x="110.00" y="110.00" width="90.00" height="90.00" fill="black" stroke="black"/>
<rect x="110.00" y="110.00" width="10.00" height="10.00" fill="white" stroke="none"/>
<rect x="120.00" y="110.00" width="10.00" height="10.00" fill="white" stroke="none"/>
<rect x="130.00" y="110.00" width="10.00" height="10.00" fill="white" stroke="none"/>
<rect x="140.00" y="110.00" width="10.00" height="10.00" fill="black" stroke="none"/>
<rect x="150.00" y="110.00" width="10.00" height="10.00" fill="white" stroke="none"/>
<rect x="160.00" y="110.00" width="10.00" height="10.00" fill="white" stroke="none"/>
<rect x="170.00" y="110.00" width="10.00" height="10.00" fill="black" stroke="none"/>
<rect x="180.00" y="110.00" width="10.00" height="10.00" fill="white" stroke="none"/>
<rect x="190.00" y="110.00" width="10.00" height="10.00" fill="white" stroke="none"/>
<rect x="190.00" y="120.00" width="10.00" height="10.00" fill="white" stroke="none"/>
<rect x="190.00" y="130.00" width="10.00" height="10.00" fill="black" stroke="none"/>
<rect x="190.00" y="140.00" width="10.00" height="10.00" fill="black" stroke="none"/>
<rect x="190.00" y="150.00" width="10.00" height="10.00" fill="white" stroke="none"/>
<rect x="190.00" y="160.00" width="10.00" height="10.00" fill="black" stroke="none"/>
<rect x="190.00" y="170.00" width="10.00" height="10.00" fill="white" stroke="none"/>
<rect x="190.00" y="180.00" width="10.00" height="10.00" fill="white" stroke="none"/>
<rect x="190.00" y="190.00" width="10.00" height="10.00" fill="white" stroke="none"/>
<rect x="180.00" y="190.00" width="10.00" height="10.00" fill="black" stroke="none"/>
<rect x="170.00" y="190.00" width="10.00" height="10.00" fill="white" stroke="none"/>
<rect x="160.00" y="190.00" width="10.00" height="10.00" fill="black" stroke="none"/>
<rect x="150.00" y="190.00" width="10.00" height="10.00" fill="white" stroke="none"/>
<rect x="140.00" y="190.00" width="10.00" height="10.00" fill="black" stroke="none"/>
<rect x="130.00" y="190.00" width="10.00" height="10.00" fill="black" stroke="none"/>
<rect x="120.00" y="190.00" width="10.00" height="10.00" fill="white" stroke="none"/>
<rect x="110.00" y="190.00" width="10.00" height="10.00" fill="white" stroke="none"/>
<rect x="110.00" y="180.00" width="10.00" height="10.00" fill="black" stroke="none"/>
<rect x="110.00" y="170.00" width="10.00" height="10.00" fill="black" stroke="none"/>
<rect x="110.00" y="160.00" width="10.00" height="10.00" fill="black" stroke="none"/>
<rect x="110.00" y="150.00" width="10.00" height="10.00" fill="black" stroke="none"/>
<rect x="110.00" y="140.00" width="10.00" height="10.00" fill="white" stroke="none"/>
<rect x="110.00" y="130.00" width="10.00" height="10.00" fill="white" stroke="none"/>
<rect x="110.00" y="120.00" width="10.00" height="10.00" fill="white" stroke="none"/>
<rect x="90.00" y="90.00" width="10.00" height="10.00" fill="black" stroke="none"/>
<rect x="100.00" y="90.00" width="10.00" height="10.00" fill="white" stroke="none"/>
<rect x="110.00" y="90.00" width="10.00" height="10.00" fill="white" stroke="none"/>
<rect x="120.00" y="90.00" width="10.00" height="10.00" fill="black" stroke="none"/>
<rect x="130.00" y="90.00" width="10.00" height="10.00" fill="black" stroke="none"/>
<rect x="140.00" y="90.00" width="10.00" height="10.00" fill="white" stroke="none"/>
<rect x="150.00" y="90.00" width="10.00" height="10.00" fill="black" stroke="none"/>
<rect x="160.00" y="90.00" width="10.00" height="10.00" fill="white" stroke="none"/>
</g>
</svg>
