<?xml version="1.0" encoding="UTF-8"?>
<svg xmlns="http://www.w3.org/2000/svg" width="800" height="600" viewBox="0 0 800 600">
<g>
<polygon points="77.32,70.00 60.00,80.00 42.68,70.00 42.68,50.00 60.00,40.00 77.32,50.00 " fill="white" stroke="black"/>
<polygon points="37.32,110.00 20.00,120.00 2.68,110.00 2.68,90.00 20.00,80.00 37.32,90.00 " fill="white" stroke="black"/>
<polygon points="-2.68,70.00 -20.00,80.00 -37.32,70.00 -37.32,50.00 -20.00,40.00 -2.68,50.00 " fill="white" stroke="black"/>
<polygon points="-42.68,110.00 -60.00,120.00 -77.32,110.00 -77.32,90.00 -60.00,80.00 -42.68,90.00 " fill="white" stroke="black"/>
<polygon points="-82.68,150.00 -100.00,160.00 -117.32,150.00 -117.32,130.00 -100.00,120.00 -82.68,130.00 " fill="white" stroke="black"/>
<polygon points="-42.68,110.00 -60.00,120.00 -77.32,110.00 -77.32,90.00 -60.00,80.00 -42.68,90.00 " fill="white" stroke="black"/>
</g>
</svg>
